[img]http://img847.imageshack.us/img847/2720/postermo.jpg[/img]
[code]
Dream House 2011 CAM V2 XviD - ILLUMINATI

Video
ID                                       : 0
Format                                   : MPEG-4 Visual
Format profile                           : Advanced Simple@L5
Format settings, BVOP                    : 2
Format settings, QPel                    : No
Format settings, GMC                     : No warppoints
Format settings, Matrix                  : Default (H.263)
Muxing mode                              : Packed bitstream
Codec ID                                 : XVID
Codec ID/Hint                            : XviD
Duration                                 : 1h 21mn
Bit rate                                 : 1 957 Kbps
Width                                    : 720 pixels
Height                                   : 304 pixels
Display aspect ratio                     : 2.35:1
Frame rate                               : 25.000 fps
Color space                              : YUV
Chroma subsampling                       : 4:2:0
Bit depth                                : 8 bits
Scan type                                : Progressive
Compression mode                         : Lossy
Bits/(Pixel*Frame)                       : 0.358
Stream size                              : 1.12 GiB (93%)
Writing library                          : XviD 64

Audio
ID                                       : 1
Format                                   : MPEG Audio
Format version                           : Version 1
Format profile                           : Layer 3
Mode                                     : Joint stereo
Mode extension                           : MS Stereo
Codec ID                                 : 55
Codec ID/Hint                            : MP3
Duration                                 : 1h 21mn
Bit rate mode                            : Constant
Bit rate                                 : 128 Kbps
Channel(s)                               : 2 channels
Sampling rate                            : 44.1 KHz
Compression mode                         : Lossy
Stream size                              : 75.0 MiB (6%)
Alignment                                : Split accross interleaves
Interleave, duration                     : 40 ms (1.00 video frame)

Same video as V1 but new cam audio 

Plot:
Soon after moving into their seemingly idyllic new home, a family learns of a brutal crime committed against former residents of the dwelling.
[/code]
Screens:
[img]http://img594.imageshack.us/img594/2550/60519285.png[/img]
[img]http://img193.imageshack.us/img193/3236/73803041.png[/img]
[img]http://img444.imageshack.us/img444/8919/85160311.png[/img]
[img]http://img90.imageshack.us/img90/3522/34655210.png[/img]
[img]http://img831.imageshack.us/img831/236/96018490.png[/img]
[img]http://img706.imageshack.us/img706/392/73644081.png[/img]